<svg xmlns="http://www.w3.org/2000/svg" xmlns:xlink="http://www.w3.org/1999/xlink" viewBox="0,0,256,256" width="48px" height="48px" fill-rule="nonzero"><g fill="#262626" fill-rule="nonzero" stroke="none" stroke-width="1" stroke-linecap="butt" stroke-linejoin="miter" stroke-miterlimit="10" stroke-dasharray="" stroke-dashoffset="0" font-family="none" font-weight="none" font-size="none" text-anchor="none" style="mix-blend-mode: normal"><g transform="scale(5.33333,5.33333)"><path d="M38.16602,7.66602c-1.28878,0 -2.49539,0.42768 -3.46094,1.14844c-0.00196,0.0013 -0.00391,0.0026 -0.00586,0.00391l-10.69922,8.06055l-10.69922,-8.05859l-0.00195,-0.00195c-0.96839,-0.73072 -2.18102,-1.15039 -3.4668,-1.15039c-3.15782,0 -5.75,2.59218 -5.75,5.75v16.79492c-0.00765,0.54095 0.27656,1.04412 0.74381,1.31683c0.46725,0.27271 1.04514,0.27271 1.51238,0c0.46725,-0.27271 0.75146,-0.77588 0.74381,-1.31683v-11.6582l4.91797,3.70508v14.77148h-3.58203c-0.75478,0 -1.33398,-0.57921 -1.33398,-1.33398c0.00765,-0.54095 -0.27656,-1.04412 -0.74381,-1.31683c-0.46725,-0.27271 -1.04514,-0.27271 -1.51238,0c-0.46725,0.27271 -0.75146,0.77588 -0.74381,1.31683c0,2.37522 1.95876,4.33398 4.33398,4.33398h5.08203c0.82839,-0.00008 1.49992,-0.67161 1.5,-1.5v-14.01172l1.28711,0.9707c0.42685,0.33653 1.00235,0.41584 1.50431,0.2073c0.50196,-0.20853 0.85186,-0.67228 0.91459,-1.21221c0.06274,-0.53992 -0.17149,-1.07155 -0.61227,-1.38963l-3.09375,-2.33203v-6.9082l8.09766,6.09961c0.5343,0.4023 1.27039,0.4023 1.80469,0l8.09766,-6.09961v6.9082l-9,6.7832l-1.55664,-1.17383c-0.42809,-0.32281 -0.99588,-0.39269 -1.48946,-0.18331c-0.49358,0.20937 -0.83796,0.66618 -0.90339,1.19833c-0.06543,0.53215 0.15804,1.05877 0.58621,1.38147l2.46094,1.85352c0.5343,0.4023 1.27039,0.4023 1.80469,0l8.09766,-6.10156v14.00781c0.00008,0.82839 0.67161,1.49992 1.5,1.5h5.08398c2.37522,0 4.33398,-1.95681 4.33398,-4.33203v-11.12305c0.00765,-0.54095 -0.27656,-1.04412 -0.74381,-1.31683c-0.46725,-0.27271 -1.04514,-0.27271 -1.51238,0c-0.46725,0.27271 -0.75146,0.77588 -0.74381,1.31683v11.12305c0,0.75478 -0.57921,1.33203 -1.33398,1.33203h-3.58398v-14.76953l4.91602,-3.70508v0.87109c-0.00765,0.54095 0.27656,1.04412 0.74381,1.31683c0.46725,0.27271 1.04514,0.27271 1.51238,0c0.46725,-0.27271 0.75146,-0.77588 0.74381,-1.31683v-6.00976c0,-3.15782 -2.59218,-5.75 -5.75,-5.75zM38.16602,10.66602c1.53618,0 2.75,1.21382 2.75,2.75v1.38086l-4.91602,3.70508v-6.90625l0.5,-0.37695c0.45446,-0.33924 1.0488,-0.55273 1.66602,-0.55273zM9.83203,10.66797c0.6353,0 1.20694,0.20457 1.66016,0.54688c0.00065,0 0.0013,0 0.00195,0l0.50781,0.38281c-0.00159,0.03057 -0.00224,0.06119 -0.00195,0.0918v6.81445l-4.91797,-3.70703v-1.37891c0,-1.53618 1.21382,-2.75 2.75,-2.75z"></path></g></g></svg>